<svg width="106" height="33" viewBox="0 0 106 33" fill="none" xmlns="http://www.w3.org/2000/svg">
<path d="M20.6738 0.32782V12.1941C18.2332 12.1941 16.2502 14.1592 16.2502 16.5778H7.32709L18.3858 3.12433L16.0978 0.32782L0.996948 16.5022L15.9452 32.7522L16.0978 32.6011L2.67482 16.5022H7.32709L20.75 32.7522V20.8104C18.6908 20.4324 17.1654 18.6185 17.1654 16.5022C17.1654 14.2348 18.9196 12.3452 21.1314 12.1185C23.3431 12.3452 25.0972 14.2348 25.0972 16.5022H34.0967L20.6738 0.32782Z" fill="#053365"/>
<path d="M25.4786 0.252182L25.326 0.478926L38.749 16.5022H34.0968L23.038 29.9557L25.326 32.7522L40.3506 16.5022L25.4786 0.252182Z" fill="#053365"/>
<path d="M46.4025 17.1039H49.4915V15.5588H46.4025V14.255H51.6851V12.7099H44.567V20.2908H51.7746V18.6491H46.4025V17.1039Z" fill="#053365"/>
<path d="M103.794 14.0137C103.794 14.0137 101.332 17.3454 101.108 17.6351C100.929 17.3454 98.4222 14.0137 98.4222 14.0137H97.1689V20.2908H98.7805V16.7176C99.1834 17.2488 100.884 19.5665 100.884 19.5665H101.287C101.287 19.5665 102.988 17.2488 103.391 16.7176V20.2908H105.003V14.0137H103.794Z" fill="#053365"/>
<path d="M89.6926 18.2145V14.0137H88.081V20.2908H89.3343C89.3343 20.2908 93.4976 16.5245 93.9005 16.1382V20.2908H95.5121V14.0137H94.2589C94.2589 14.0137 90.0955 17.8282 89.6926 18.2145Z" fill="#053365"/>
<path d="M86.2453 12.7099H84.0519C84.0519 12.7099 82.2614 14.8827 82.0819 15.1242C81.903 14.931 79.9781 12.7099 79.9781 12.7099H77.5159C77.5159 12.7099 80.7392 16.1864 80.9184 16.3796C80.7392 16.5728 77.6054 20.2425 77.6054 20.2425H79.8438C79.8438 20.2425 81.8585 17.7316 82.0373 17.4902C82.2162 17.6833 84.4548 20.2425 84.4548 20.2425H86.962C86.962 20.2425 83.3804 16.3796 83.2015 16.1864C83.3804 15.9933 86.2453 12.7099 86.2453 12.7099Z" fill="#053365"/>
<path d="M59.2509 17.0556C59.3852 17.0073 59.4747 16.9108 59.5643 16.8141C59.6538 16.7176 59.8777 16.4761 59.8777 15.9933V15.269C59.8777 14.9793 59.8329 14.593 59.5643 14.3033C59.2509 14.0136 58.8032 13.9653 58.4451 13.9653H53.3416V20.2907H58.1765C58.7137 20.2907 59.1166 20.1941 59.43 20.001C59.7881 19.7596 59.9224 19.4216 59.9224 18.987V18.2145C59.9224 17.8764 59.7881 17.5384 59.6091 17.3453C59.5195 17.2487 59.43 17.1522 59.2509 17.0556ZM54.9532 15.3173H57.8184C58.1317 15.3173 58.2213 15.3656 58.2213 15.3656C58.3108 15.4139 58.3108 15.5588 58.3108 15.607V16.1864C58.3108 16.283 58.3108 16.3313 58.266 16.3796C58.2213 16.4279 58.087 16.4761 57.8631 16.4761H54.998V15.3173H54.9532ZM58.3108 18.5524C58.3108 18.649 58.3108 18.7939 58.2213 18.8422C58.1765 18.8904 58.087 18.9387 57.8631 18.9387H54.9532V17.7316H57.8184C58.087 17.7316 58.1765 17.7799 58.2213 17.8281C58.3108 17.8764 58.3108 18.0213 58.3108 18.1178V18.5524Z" fill="#053365"/>
<path d="M66.4582 14.0137H61.3547V20.2908H62.9664V17.9731H66.4582C66.9507 17.9731 67.3088 17.8765 67.5326 17.6834C67.846 17.3937 67.8908 16.9591 67.8908 16.6694V15.3174C67.8908 14.738 67.7117 14.0137 66.4582 14.0137ZM66.3687 16.2831C66.3687 16.4279 66.3687 16.4762 66.2792 16.5245C66.2344 16.5728 66.1001 16.6211 65.9658 16.6211H62.9664V15.3657H65.8763C66.0106 15.3657 66.1896 15.3657 66.2792 15.4622C66.3239 15.5105 66.3687 15.5588 66.3687 15.7036V16.2831Z" fill="#053365"/>
<path d="M76.3072 14.4C75.9491 14.062 75.3224 14.062 75.0538 14.062H70.7561C70.1741 14.062 69.816 14.1585 69.5922 14.4C69.234 14.738 69.234 15.3657 69.234 15.6554V18.794C69.234 19.0354 69.234 19.6631 69.5474 20.0011C69.7712 20.2425 70.1741 20.3391 70.8009 20.3391H75.0538C75.5014 20.3391 75.9939 20.2908 76.3072 19.9528C76.6206 19.6148 76.6206 19.0354 76.6206 18.8423V15.6554C76.6206 15.3174 76.6206 14.6897 76.3072 14.4ZM75.009 18.8423H70.8009V15.4622H75.009V18.8423Z" fill="#053365"/>
</svg>
