<svg width="86" height="33" viewBox="0 0 86 33" fill="none" xmlns="http://www.w3.org/2000/svg">
<path d="M20.2258 24.8542L11.8618 16.4993L7.90991 20.447L20.2258 32.7499L32.5405 20.4482V12.5526L20.2258 24.8542Z" fill="#2872A4"/>
<path d="M16.2734 20.9059L20.2253 24.8536L32.5405 12.5517L20.2259 0.250027H12.3218L24.6362 12.5517L16.2734 20.9059Z" fill="#83AD3F"/>
<path d="M24.633 12.5553L12.3147 0.250004L0 12.5516V20.4476L12.3147 8.14565L20.6808 16.5029L24.633 12.5553Z" fill="#B5D978"/>
<path d="M16.2673 12.0941L12.3154 8.14612L0.00012207 20.4484L12.3148 32.75H20.2188L7.90415 20.4484L16.2673 12.0941Z" fill="#80C8EB"/>
<path d="M71.1399 17.3287L70.4121 16.397L71.1399 15.4651L73.6932 12.1945V7.00845H68.8066V25.7856H73.6932V20.5993L71.1399 17.3287ZM78.2574 16.397L86 7.00845H79.666L72.3362 16.397L79.666 25.7856H86L78.2574 16.397ZM63.276 11.1415V25.7856H58.388V11.1415H54.3742V7.00845H67.2899V11.1415H63.276ZM40.9133 14.2549H47.9705V7.00845H52.8568V25.7856H47.9705V18.0405H40.9133V25.7856H36.027V7.00845H40.9133V14.2549Z" fill="#707176"/>
</svg>
