<svg width="86" height="33" viewBox="0 0 86 33" fill="none" xmlns="http://www.w3.org/2000/svg">
<path d="M37.8475 11.307C36.6559 12.5355 36.027 14.3367 36.027 16.5122C36.027 20.7928 38.43 23.4515 42.296 23.4515C45.4801 23.4515 47.658 21.6631 48.2538 18.5469L48.3068 18.2719H45.0796L45.0399 18.4574C44.7387 19.9067 43.7556 20.7385 42.339 20.7385C40.0585 20.7385 39.2442 18.5725 39.2442 16.5474C39.2442 13.3801 40.8429 12.2508 42.339 12.2508C44.454 12.2508 44.838 13.6169 45.0465 14.3527L45.0928 14.5222H48.2836L48.2637 14.2759C48.085 11.9948 46.152 9.5378 42.3059 9.5378C41.4763 9.51626 40.6511 9.66249 39.8833 9.96717C39.1156 10.2718 38.4221 10.7282 37.8475 11.307Z" fill="#CCCBCB"/>
<path d="M57.1872 9.87409L54.5757 16.6694C54.1521 15.828 51.1798 9.87409 51.1798 9.87409H47.519L53.0234 19.9999C52.6329 20.6749 52.4673 20.7773 51.8716 20.7773C51.537 20.7686 51.2066 20.7036 50.8951 20.5853L50.5641 20.4382V23.2471L50.7429 23.2887C51.3201 23.3953 51.9062 23.451 52.4938 23.4551C53.9038 23.4551 54.9035 23.0552 55.8269 21.0109L60.8349 9.87409H57.1872Z" fill="#CCCBCB"/>
<path d="M60.3452 14.2796L60.325 14.5259H63.5156L63.5658 14.3564C63.774 13.6206 64.1581 12.2544 66.2863 12.2544C66.8094 12.2544 68.5038 12.4496 69.1031 14.8139H65.4621V17.4757H69.2421C69.0829 18.6242 68.4871 20.7326 66.2632 20.7326C64.8496 20.7326 63.8668 19.9007 63.5658 18.4515L63.526 18.2659H60.3054L60.3585 18.5411C60.9675 21.6667 63.1384 23.4648 66.3226 23.4648C70.2116 23.4648 72.6316 20.8061 72.6316 16.5255C72.6316 12.2449 70.1389 9.55103 66.2863 9.55103C62.4336 9.55103 60.5234 11.9985 60.3452 14.2796Z" fill="#CCCBCB"/>
<path d="M81.5481 9.87409L76.8546 14.721V9.87409H73.6277V23.1223H76.8546V18.6657L77.8806 17.6452L81.8526 23.1352H86L80.1414 15.3705L85.7912 9.87409H81.5481Z" fill="#CCCBCB"/>
<path d="M21.7213 18.9011C21.5858 19.0364 17.0207 23.5195 16.7001 23.8494C17.6922 24.5269 18.8312 24.96 20.0235 25.1131C21.2158 25.2662 22.4276 25.135 23.5592 24.7301C23.8303 24.6312 24.3096 24.5091 24.5906 24.3739L24.8749 24.0704C26.216 22.6228 27.131 20.8341 27.5193 18.9011C25.5889 18.083 23.0601 17.7993 21.7213 18.9011Z" fill="url(#paint0_linear_8_1064)"/>
<path d="M21.7213 13.1646C22.9972 14.4412 25.9623 14.5501 27.3408 13.478C27.0103 12.0463 25.688 9.51935 24.2566 8.31202L23.86 7.94915C22.8695 7.08173 21.7353 6.39299 20.5081 5.91378L19.7776 5.65646L18.6173 5.35627C17.8275 5.20515 17.0249 5.13113 16.2207 5.13524C15.4433 5.13525 14.6679 5.21484 13.9067 5.37276L12.6936 5.70262L12.0027 5.95008C10.994 6.37808 10.053 6.95037 9.20947 7.64897C10.4217 7.27885 11.704 7.19702 12.9536 7.41015C14.2032 7.62322 15.3855 8.12528 16.4058 8.87613C16.4058 8.87613 21.5791 13.0227 21.7213 13.1646Z" fill="url(#paint1_linear_8_1064)"/>
<path d="M8.34333 24.6807C9.39539 25.7106 10.6398 26.5243 12.0059 27.0757L12.6968 27.3231L13.9133 27.653C15.4397 27.9592 17.011 27.9693 18.5412 27.6827L19.7841 27.3693L20.6039 27.0757C21.6474 26.6501 22.6247 26.078 23.5062 25.3768C22.2515 25.7306 20.934 25.8043 19.6474 25.5928C18.3608 25.3813 17.1367 24.8897 16.0619 24.1529L8.86893 16.9813C8.00331 18.2443 7.54223 19.7397 7.54666 21.2698C7.54776 22.0921 7.67822 22.9092 7.93345 23.6911C8.04242 24.0114 8.16938 24.3252 8.31361 24.6313L8.34333 24.6807Z" fill="url(#paint2_linear_8_1064)"/>
<path d="M8.04581 8.63857C7.01512 9.69001 6.20089 10.9329 5.64926 12.297L5.39803 12.9864L5.06747 14.2004C4.75062 15.7236 4.75062 17.2955 5.06747 18.8187L5.39803 20.0294L5.64926 20.7221C6.07463 21.7306 6.64838 22.6702 7.35168 23.5096C7.11448 22.7386 6.98983 21.9376 6.98142 21.1312C6.97739 19.4069 7.53289 17.7276 8.56485 16.3446L15.7545 9.17629C14.7618 8.49904 13.6227 8.06535 12.4302 7.91062C11.2377 7.75584 10.0254 7.88429 8.89207 8.28562C8.62435 8.38455 8.34666 8.49672 8.06897 8.63196L8.04581 8.63857Z" fill="url(#paint3_linear_8_1064)"/>
<path d="M25.6681 8.33213C27.6539 10.5949 28.7485 13.5004 28.7485 16.5082C28.7485 19.5161 27.6539 22.4216 25.6681 24.6844C25.2787 25.1379 24.8543 25.5603 24.3988 25.9478L23.8004 26.4426C23.6616 26.5449 23.5195 26.6472 23.3674 26.7494C22.6115 27.276 21.8001 27.7184 20.9477 28.069C17.9167 29.2815 14.5317 29.2685 11.5102 28.0327C10.6811 27.675 9.89128 27.2328 9.15326 26.7131L8.73347 26.4096C8.51856 26.2447 8.31696 26.0798 8.11197 25.9016C7.65393 25.5089 7.22631 25.0821 6.83273 24.625C4.88572 22.3658 3.81503 19.4848 3.81503 16.5049C3.81503 13.5251 4.88572 10.6441 6.83273 8.38491C7.22717 7.92861 7.65474 7.50189 8.11197 7.10828C8.31696 6.93012 8.51856 6.77835 8.73347 6.60025C8.87228 6.4947 9.01444 6.3957 9.15326 6.29676C9.89411 5.79267 10.6837 5.36386 11.5102 5.01679C14.528 3.76373 17.9194 3.74951 20.9477 4.97721C21.8013 5.31831 22.6131 5.7555 23.3674 6.28023C23.5195 6.37262 23.6616 6.48478 23.8004 6.58702C24.0021 6.73879 24.207 6.90042 24.4087 7.06867L25.6681 8.33213ZM29.6019 15.6093V15.5334C30.1935 14.2568 31.3108 14.2139 32.5405 15.3949C32.5405 13.4453 32.124 11.9015 31.1819 11.0273C29.8597 9.84956 28.4647 10.6182 27.3276 9.01827C27.1953 7.61956 28.1573 7.03897 29.8134 7.42162C28.8217 5.74912 27.6846 4.62424 26.4416 4.33394C26.1886 4.27343 25.9272 4.25559 25.6681 4.28116C25.2351 4.32218 24.8087 4.41635 24.3988 4.56156C24.1991 4.62722 23.9961 4.68228 23.7905 4.7265C23.6479 4.75512 23.503 4.77167 23.3575 4.77598C22.9209 4.7977 22.486 4.70681 22.0947 4.51207C21.2981 3.37728 21.8171 2.42063 23.3575 1.91921C23.3894 1.91297 23.4197 1.90065 23.4468 1.88292C23.419 1.86654 23.3889 1.85431 23.3575 1.84663C22.6038 1.40045 21.7885 1.06702 20.9378 0.856986C20.2874 0.689382 19.6049 0.689382 18.9545 0.856986C17.6124 1.31222 17.3016 2.42722 16.2405 2.94513C15.9693 3.07523 15.6772 3.15674 15.3777 3.18595H15.3017C14.0225 2.58886 13.9795 1.47716 15.1629 0.25C13.6655 0.25 12.3961 0.504008 11.4837 1.03512C11.2286 1.20107 10.9954 1.39834 10.7896 1.62231C9.72511 2.83957 10.2706 4.10302 9.13673 5.17844C9.02469 5.28446 8.9054 5.38257 8.77972 5.47203H8.70369C8.49587 5.48573 8.28707 5.47354 8.08224 5.43575C7.18311 5.21802 6.85588 4.33394 7.18311 2.99132L6.80295 3.21894C5.33196 4.14261 4.33037 5.19823 4.06261 6.3297C3.70891 8.08142 5.09066 8.9028 4.2312 10.7105C3.07423 11.532 2.08585 11.0009 1.60322 9.37122C0.634682 11.0669 0.224782 12.6206 0.595013 13.8378C1.16358 15.4873 2.71392 15.5334 2.942 17.4171V17.4962C2.35691 18.7729 1.22969 18.8158 0 17.648C0 19.5844 0.429731 21.1414 1.36853 22.0123C2.69077 23.1768 4.08905 22.4115 5.22619 24.0147C5.35841 25.4068 4.39317 25.994 2.73705 25.608C3.72874 27.2905 4.86918 28.4285 6.1121 28.7089C6.34175 28.7542 6.57555 28.7752 6.80957 28.7716C7.24624 28.735 7.67628 28.6418 8.08887 28.4945C8.29381 28.4285 8.49547 28.3659 8.71031 28.3164C8.84913 28.2933 8.99129 28.2636 9.1301 28.2537C9.58693 28.2282 10.0425 28.3214 10.4524 28.5242C11.2457 29.6689 10.7234 30.6387 9.1301 31.1303C9.12146 31.1325 9.11236 31.1325 9.10366 31.1303C9.10366 31.1303 9.1301 31.1303 9.1301 31.1534C9.86796 31.5868 10.6606 31.9196 11.487 32.143C12.1722 32.3283 12.8944 32.3283 13.5795 32.143C14.9017 31.6976 15.2059 30.5992 16.2438 30.078C16.5311 29.9399 16.8394 29.8507 17.1562 29.814H17.2322C18.5148 30.4078 18.5544 31.5228 17.3743 32.75C18.8057 32.75 20.0188 32.5224 20.9246 32.0308C21.2341 31.8621 21.516 31.6475 21.7609 31.3941C22.8121 30.1934 22.2931 28.9564 23.3443 27.8908C23.4849 27.7572 23.6377 27.6369 23.8004 27.5313C23.7919 27.5343 23.7826 27.5343 23.774 27.5313C23.774 27.5313 23.774 27.5313 23.8004 27.5082C23.8269 27.4851 23.8004 27.5082 23.8236 27.5082C23.8167 27.5166 23.809 27.5244 23.8004 27.5313C24.0036 27.5213 24.2072 27.5302 24.4087 27.5576C25.3574 27.7358 25.731 28.633 25.4004 30.0153C25.5031 29.9626 25.6015 29.902 25.6946 29.8338C27.2152 28.897 28.2432 27.8215 28.511 26.6604C28.8647 24.8988 27.4796 24.0906 28.3325 22.2795C28.3325 22.2795 28.3325 22.3059 28.3325 22.3158C29.4861 21.5076 30.4745 22.0387 30.9571 23.6584C31.9488 21.976 32.3422 20.419 31.972 19.205C31.3736 17.5457 29.8134 17.4962 29.6019 15.6093Z" fill="#757373"/>
<defs>
<linearGradient id="paint0_linear_8_1064" x1="28.4185" y1="17.1231" x2="13.2096" y2="30.224" gradientUnits="userSpaceOnUse">
<stop offset="0.3" stop-color="#CBCACA"/>
<stop offset="0.38" stop-color="#C5C4C4"/>
<stop offset="0.5" stop-color="#B3B2B2"/>
<stop offset="0.63" stop-color="#969495"/>
<stop offset="0.78" stop-color="#6D6C6C"/>
<stop offset="0.87" stop-color="#525051"/>
</linearGradient>
<linearGradient id="paint1_linear_8_1064" x1="15.272" y1="6.32612" x2="27.5476" y2="19.9523" gradientUnits="userSpaceOnUse">
<stop offset="0.04" stop-color="#FFFD7F"/>
<stop offset="0.12" stop-color="#FFFD60"/>
<stop offset="0.2" stop-color="#FFFD43"/>
<stop offset="0.3" stop-color="#FFFC2A"/>
<stop offset="0.4" stop-color="#FFFC17"/>
<stop offset="0.53" stop-color="#FFFC0A"/>
<stop offset="0.69" stop-color="#FFFC02"/>
<stop offset="1" stop-color="#FFFC00"/>
</linearGradient>
<linearGradient id="paint2_linear_8_1064" x1="18.485" y1="27.2604" x2="4.65584" y2="15.1486" gradientUnits="userSpaceOnUse">
<stop offset="0.3" stop-color="#979697"/>
<stop offset="0.32" stop-color="#919091"/>
<stop offset="0.49" stop-color="#767475"/>
<stop offset="0.66" stop-color="#626061"/>
<stop offset="0.83" stop-color="#565455"/>
<stop offset="1" stop-color="#525051"/>
</linearGradient>
<linearGradient id="paint3_linear_8_1064" x1="3.79811" y1="19.9271" x2="14.2292" y2="9.58364" gradientUnits="userSpaceOnUse">
<stop offset="0.35" stop-color="#BCC76A"/>
<stop offset="0.95" stop-color="#90A107"/>
</linearGradient>
</defs>
</svg>
