<svg width="86" height="33" viewBox="0 0 86 33" fill="none" xmlns="http://www.w3.org/2000/svg">
<path fill-rule="evenodd" clip-rule="evenodd" d="M1.73635 22.3898C6.67094 30.5432 16.4025 29.6043 20.8291 24.7531C20.8541 24.7261 20.8541 24.5614 20.7578 24.5852C16.1785 25.7202 12.0316 24.4581 9.22832 21.8248C3.19395 16.1544 3.83455 7.95463 8.51578 3.00699C9.34343 2.13196 10.4363 1.4486 11.4266 0.831629C11.558 0.750202 11.4635 0.547886 11.3159 0.590479C2.94497 3.04144 -3.13631 14.3398 1.73635 22.3898Z" fill="#0078A8"/>
<path fill-rule="evenodd" clip-rule="evenodd" d="M18.4 0.254951C8.99997 0.531177 4.93305 9.58338 6.84421 15.914C6.85422 15.9485 6.99497 16.0312 7.0225 15.9341C8.34748 11.3284 11.4935 8.30184 15.1344 7.1462C22.9742 4.65703 29.6267 9.32407 31.4934 15.9253C31.8231 17.0941 31.8581 18.3976 31.8869 19.5801C31.8913 19.7367 32.1102 19.7549 32.1471 19.6033C34.2485 10.9952 27.6817 -0.0175176 18.4 0.254951Z" fill="#EF4056"/>
<path fill-rule="evenodd" clip-rule="evenodd" d="M28.8848 26.0461C33.3502 17.6165 27.6868 9.5026 21.3478 8.02375C21.3127 8.01561 21.1726 8.09892 21.2414 8.17158C24.4957 11.6416 25.496 15.931 24.6583 19.7198C22.8548 27.8795 15.5605 31.4128 9.01377 29.7586C7.85519 29.4661 6.72914 28.8441 5.70882 28.2791C5.57432 28.2039 5.44857 28.3881 5.55868 28.4964C11.8283 34.6542 24.4763 34.3686 28.8848 26.0461Z" fill="#FFD530"/>
<path fill-rule="evenodd" clip-rule="evenodd" d="M36.027 10.9545C36.027 9.83445 36.8761 8.95533 38.0219 8.95533C38.7452 8.95533 39.2126 9.25372 39.5445 9.67868C39.5825 9.72736 39.5723 9.79891 39.5235 9.83688L38.927 10.3066C38.9043 10.324 38.8758 10.332 38.8474 10.3289C38.819 10.3258 38.7928 10.3119 38.7744 10.2901C38.5731 10.0642 38.3358 9.92742 38.0107 9.92742C37.4814 9.92742 37.1085 10.383 37.1085 10.9545C37.1085 11.5309 37.4814 11.9816 38.0107 11.9816C38.3675 11.9816 38.5917 11.8288 38.7988 11.5922C38.8169 11.5712 38.8423 11.5577 38.8699 11.5544C38.8975 11.5511 38.9253 11.5581 38.9479 11.5742L39.5606 12.0176C39.6117 12.0546 39.6239 12.1286 39.5849 12.1783C39.2355 12.63 38.7637 12.9527 37.978 12.9527C36.897 12.9527 36.027 12.1131 36.027 10.9545ZM42.4805 10.8771L41.0637 12.3438V12.777C41.0639 12.7899 41.0616 12.8028 41.0569 12.8148C41.0521 12.8268 41.045 12.8377 41.036 12.8469C41.027 12.8562 41.0162 12.8635 41.0043 12.8686C40.9924 12.8736 40.9796 12.8763 40.9667 12.8763H40.2103C40.1566 12.8763 40.1128 12.8325 40.1128 12.7775V9.23571C40.1126 9.22281 40.115 9.20999 40.1198 9.19801C40.1246 9.18603 40.1317 9.17512 40.1408 9.16593C40.1499 9.15673 40.1607 9.14943 40.1726 9.14445C40.1845 9.13946 40.1973 9.1369 40.2103 9.1369H40.9667C40.9796 9.1369 40.9924 9.13946 41.0043 9.14445C41.0162 9.14943 41.0271 9.15673 41.0361 9.16593C41.0452 9.17512 41.0523 9.18603 41.0572 9.19801C41.062 9.20999 41.0643 9.22281 41.0642 9.23571V11.1575L42.4805 9.69718V9.23571C42.4803 9.22281 42.4827 9.20999 42.4875 9.19801C42.4923 9.18603 42.4995 9.17512 42.5085 9.16593C42.5176 9.15673 42.5284 9.14943 42.5403 9.14445C42.5522 9.13946 42.565 9.1369 42.578 9.1369H43.3339C43.388 9.1369 43.4314 9.18071 43.4314 9.23571V12.7775C43.4314 12.8325 43.388 12.8763 43.3339 12.8763H42.5775C42.5646 12.8763 42.5519 12.8736 42.54 12.8686C42.5281 12.8636 42.5174 12.8563 42.5083 12.8471C42.4993 12.8379 42.4922 12.827 42.4874 12.8151C42.4827 12.8031 42.4803 12.7904 42.4805 12.7775L42.481 10.8771H42.4805ZM46.809 9.23571C46.8092 9.22277 46.8069 9.2099 46.8021 9.19786C46.7973 9.18582 46.7902 9.17486 46.7811 9.16561C46.772 9.15636 46.7612 9.14902 46.7492 9.144C46.7373 9.13899 46.7244 9.13641 46.7115 9.13641H44.4359C44.423 9.13647 44.4102 9.1391 44.3983 9.14414C44.3864 9.14919 44.3756 9.15654 44.3666 9.16578C44.3575 9.17503 44.3504 9.18597 44.3457 9.19797C44.3409 9.20998 44.3386 9.22281 44.3389 9.23571V12.7775C44.3387 12.7904 44.3411 12.8032 44.3459 12.8152C44.3507 12.8272 44.3578 12.8381 44.3669 12.8473C44.376 12.8565 44.3868 12.8638 44.3987 12.8688C44.4106 12.8738 44.4234 12.8763 44.4364 12.8763H45.7328C46.0096 12.8763 46.306 12.8267 46.5501 12.6952C46.863 12.5302 47.095 12.2231 47.095 11.7231C47.095 11.1794 46.8577 10.8937 46.5501 10.7452C46.2577 10.6031 45.9068 10.5865 45.6417 10.5865H45.2903V9.99314H46.7115C46.7244 9.99314 46.7372 9.99057 46.7491 9.98559C46.761 9.98061 46.7719 9.9733 46.7809 9.96411C46.79 9.95491 46.7971 9.94401 46.802 9.93203C46.8068 9.92005 46.8091 9.90723 46.809 9.89432V9.23571ZM50.2299 10.8776L48.8136 12.3438V12.777C48.8138 12.79 48.8115 12.8028 48.8067 12.8149C48.8019 12.8269 48.7948 12.8379 48.7857 12.8471C48.7766 12.8564 48.7658 12.8637 48.7538 12.8687C48.7419 12.8737 48.7291 12.8763 48.7161 12.8763H47.9592C47.9463 12.8762 47.9336 12.8735 47.9218 12.8685C47.91 12.8634 47.8993 12.8561 47.8904 12.8469C47.8814 12.8378 47.8743 12.8269 47.8696 12.815C47.8648 12.8031 47.8625 12.7903 47.8627 12.7775V9.23571C47.8625 9.22281 47.8649 9.20999 47.8697 9.19801C47.8745 9.18603 47.8816 9.17512 47.8907 9.16593C47.8998 9.15673 47.9106 9.14943 47.9225 9.14445C47.9344 9.13946 47.9472 9.1369 47.9602 9.1369H48.7161C48.729 9.1369 48.7418 9.13946 48.7537 9.14445C48.7657 9.14943 48.7765 9.15673 48.7855 9.16593C48.7946 9.17512 48.8018 9.18603 48.8066 9.19801C48.8114 9.20999 48.8138 9.22281 48.8136 9.23571V11.1575L50.2299 9.69718V9.23571C50.2297 9.22281 50.2321 9.20999 50.2369 9.19801C50.2417 9.18603 50.2489 9.17512 50.2579 9.16593C50.267 9.15673 50.2778 9.14943 50.2897 9.14445C50.3017 9.13946 50.3145 9.1369 50.3274 9.1369H51.0838C51.1374 9.1369 51.1813 9.18071 51.1813 9.23571V12.7775C51.1813 12.8325 51.1374 12.8763 51.0838 12.8763H50.3269C50.314 12.8763 50.3012 12.8738 50.2892 12.8688C50.2773 12.8638 50.2665 12.8565 50.2574 12.8473C50.2484 12.8381 50.2412 12.8272 50.2364 12.8152C50.2316 12.8032 50.2292 12.7904 50.2294 12.7775V10.8771L50.2299 10.8776ZM54.6558 9.42799C54.3858 9.19726 54.0612 9.1369 53.759 9.1369H52.1853C52.1317 9.1369 52.0878 9.18071 52.0878 9.23571V12.7775C52.0878 12.832 52.1317 12.8763 52.1853 12.8763H52.9417C52.9958 12.8763 53.0397 12.8325 53.0397 12.7775V11.8278H53.7854C54.0719 11.8278 54.358 11.7728 54.6178 11.564C54.9205 11.3279 55.1154 10.9433 55.1154 10.4823C55.1154 10.0374 54.9366 9.66408 54.6558 9.42799ZM55.6067 10.9545C55.6067 9.83445 56.4553 8.95533 57.6011 8.95533C58.3244 8.95533 58.7918 9.25372 59.1237 9.67868C59.1617 9.72736 59.1515 9.79891 59.1022 9.83688L58.5067 10.3066C58.484 10.324 58.4555 10.332 58.4271 10.3289C58.3987 10.3258 58.3725 10.3119 58.3541 10.2901C58.1528 10.0642 57.9145 9.92742 57.5899 9.92742C57.0606 9.92742 56.6877 10.383 56.6877 10.9545C56.6873 11.5309 57.0606 11.9816 57.5899 11.9816C57.9467 11.9816 58.1704 11.8288 58.3775 11.5922C58.4165 11.5489 58.4799 11.5406 58.5266 11.5742L59.1398 12.0176C59.152 12.0266 59.1623 12.0378 59.1702 12.0507C59.178 12.0636 59.1832 12.078 59.1855 12.0929C59.1877 12.1078 59.187 12.1231 59.1834 12.1377C59.1797 12.1524 59.1732 12.1662 59.1641 12.1783C58.8142 12.63 58.3424 12.9527 57.5577 12.9527C56.4767 12.9527 55.6062 12.1131 55.6067 10.9545ZM64.0273 12.8763C64.1135 12.8763 64.1676 12.8432 64.1896 12.7663L64.3567 12.2007H65.4865L65.6488 12.7663C65.6702 12.8432 65.7243 12.8763 65.8111 12.8763H66.5787C66.6435 12.8763 66.665 12.8432 66.665 12.7994C66.665 12.7809 66.6611 12.7663 66.6567 12.7493L66.6543 12.739L65.4923 9.21916C65.4704 9.14761 65.4222 9.12035 65.3408 9.12035H64.5405C64.4596 9.12035 64.4108 9.14761 64.3894 9.21916L63.2055 12.7386L63.2026 12.7493C63.1987 12.7663 63.1948 12.7809 63.1948 12.7994C63.1948 12.8432 63.2163 12.8763 63.2816 12.8763H64.0273ZM67.1075 10.3889C67.1075 9.99314 67.2591 9.62514 67.5345 9.4056C67.7777 9.21381 68.1179 9.13641 68.4805 9.13641H70.1181C70.1311 9.13641 70.1439 9.13899 70.1559 9.144C70.1678 9.14902 70.1786 9.15636 70.1877 9.16561C70.1968 9.17486 70.2039 9.18582 70.2087 9.19786C70.2135 9.2099 70.2158 9.22277 70.2156 9.23571V12.7775C70.2158 12.7904 70.2134 12.8032 70.2086 12.8152C70.2038 12.8272 70.1966 12.8381 70.1875 12.8473C70.1785 12.8565 70.1677 12.8638 70.1557 12.8688C70.1438 12.8738 70.131 12.8763 70.1181 12.8763H69.3612C69.3483 12.8763 69.3355 12.8738 69.3236 12.8688C69.3116 12.8638 69.3008 12.8565 69.2917 12.8473C69.2827 12.8381 69.2755 12.8272 69.2707 12.8152C69.2659 12.8032 69.2635 12.7904 69.2637 12.7775V11.6569H68.6852L68.1076 12.7775C68.0638 12.8598 68.0097 12.8763 67.9239 12.8763H67.091C67.0369 12.8763 67.0042 12.8491 67.0042 12.7999C67.0065 12.7646 67.0177 12.7304 67.0369 12.7006L67.7343 11.4705C67.6546 11.4262 67.5804 11.3728 67.513 11.3113C67.2206 11.0475 67.1075 10.7184 67.1075 10.3889ZM36.1674 18.4874C36.1672 18.5003 36.1696 18.5131 36.1744 18.5251C36.1792 18.5371 36.1864 18.548 36.1954 18.5572C36.2045 18.5664 36.2153 18.5737 36.2272 18.5787C36.2392 18.5836 36.252 18.5862 36.2649 18.5862H37.0213C37.0342 18.5862 37.047 18.5836 37.0589 18.5787C37.0709 18.5737 37.0817 18.5664 37.0907 18.5572C37.0998 18.548 37.107 18.5371 37.1118 18.5251C37.1166 18.5131 37.119 18.5003 37.1188 18.4874V15.703H38.5405C38.5534 15.703 38.5662 15.7005 38.5781 15.6955C38.59 15.6905 38.6009 15.6832 38.6099 15.674C38.619 15.6648 38.6261 15.6539 38.631 15.6419C38.6358 15.6299 38.6382 15.6171 38.638 15.6042V14.9456C38.6382 14.9327 38.6358 14.9199 38.631 14.9079C38.6261 14.8959 38.619 14.885 38.6099 14.8758C38.6009 14.8666 38.59 14.8593 38.5781 14.8543C38.5662 14.8494 38.5534 14.8468 38.5405 14.8468H36.2644C36.2515 14.8469 36.2388 14.8495 36.2269 14.8545C36.215 14.8595 36.2043 14.8668 36.1953 14.876C36.1862 14.8852 36.1791 14.8961 36.1744 14.908C36.1696 14.92 36.1672 14.9327 36.1674 14.9456V18.4874ZM42.0857 14.8463C42.0986 14.8463 42.1114 14.8489 42.1234 14.8539C42.1353 14.8588 42.1461 14.8661 42.1552 14.8753C42.1642 14.8845 42.1714 14.8954 42.1762 14.9074C42.181 14.9194 42.1834 14.9322 42.1832 14.9451V15.6042C42.1834 15.6171 42.181 15.6299 42.1762 15.6419C42.1714 15.6539 42.1642 15.6648 42.1552 15.674C42.1461 15.6832 42.1353 15.6905 42.1234 15.6955C42.1114 15.7005 42.0986 15.703 42.0857 15.703H40.2917V16.274H41.7991C41.8532 16.274 41.8966 16.3183 41.8966 16.3728L41.8961 17.0324C41.8962 17.0453 41.8938 17.0581 41.889 17.07C41.8841 17.0819 41.877 17.0927 41.8679 17.1019C41.8589 17.111 41.8481 17.1183 41.8362 17.1232C41.8243 17.1282 41.8115 17.1308 41.7986 17.1308H40.2917V17.7295H42.0852C42.1393 17.7295 42.1827 17.7733 42.1827 17.8283V18.4874C42.1828 18.5003 42.1804 18.513 42.1756 18.525C42.1707 18.5369 42.1636 18.5477 42.1545 18.5569C42.1454 18.566 42.1346 18.5733 42.1228 18.5782C42.1109 18.5832 42.0981 18.5857 42.0852 18.5857H39.4368C39.4239 18.5857 39.4111 18.5832 39.3992 18.5782C39.3874 18.5733 39.3766 18.566 39.3675 18.5569C39.3584 18.5477 39.3513 18.5369 39.3464 18.525C39.3416 18.513 39.3392 18.5003 39.3393 18.4874L39.3398 14.9451C39.3396 14.9322 39.342 14.9194 39.3468 14.9074C39.3516 14.8954 39.3587 14.8845 39.3678 14.8753C39.3769 14.8661 39.3877 14.8588 39.3996 14.8539C39.4115 14.8489 39.4243 14.8463 39.4373 14.8463H42.0857ZM46.2626 14.9451C46.2628 14.9323 46.2604 14.9196 46.2557 14.9076C46.2509 14.8957 46.2439 14.8849 46.2349 14.8757C46.2259 14.8665 46.2152 14.8592 46.2034 14.8541C46.1916 14.8491 46.1789 14.8464 46.1661 14.8463H45.4092C45.3963 14.8464 45.3836 14.849 45.3717 14.854C45.3598 14.859 45.3491 14.8663 45.3401 14.8755C45.331 14.8847 45.3239 14.8956 45.3191 14.9075C45.3144 14.9195 45.312 14.9323 45.3122 14.9451V16.274H43.9061V14.9451C43.9063 14.9323 43.9039 14.9196 43.8992 14.9076C43.8944 14.8957 43.8874 14.8849 43.8784 14.8757C43.8694 14.8665 43.8587 14.8592 43.8469 14.8541C43.8351 14.8491 43.8224 14.8464 43.8096 14.8463H43.0527C43.0398 14.8463 43.027 14.8489 43.015 14.8539C43.0031 14.8588 42.9923 14.8661 42.9832 14.8753C42.9742 14.8845 42.967 14.8954 42.9622 14.9074C42.9574 14.9194 42.955 14.9322 42.9552 14.9451V18.4874C42.9551 18.5003 42.9575 18.513 42.9623 18.525C42.9672 18.5369 42.9743 18.5477 42.9834 18.5569C42.9925 18.566 43.0033 18.5733 43.0152 18.5782C43.027 18.5832 43.0398 18.5857 43.0527 18.5857H43.8091C43.8219 18.5857 43.8346 18.5831 43.8465 18.5781C43.8583 18.5731 43.869 18.5658 43.8781 18.5567C43.8871 18.5476 43.8942 18.5367 43.899 18.5248C43.9038 18.5129 43.9062 18.5002 43.9061 18.4874V17.1308H45.3117V18.4874C45.3116 18.5003 45.314 18.513 45.3188 18.525C45.3237 18.5369 45.3308 18.5477 45.3399 18.5569C45.349 18.566 45.3598 18.5733 45.3717 18.5782C45.3835 18.5832 45.3963 18.5857 45.4092 18.5857H46.1661C46.1789 18.5856 46.1915 18.583 46.2033 18.5779C46.2151 18.5729 46.2258 18.5657 46.2347 18.5565C46.2437 18.5474 46.2508 18.5366 46.2555 18.5247C46.2603 18.5129 46.2627 18.5002 46.2626 18.4874V14.9451ZM49.9165 14.8463C49.9294 14.8463 49.9422 14.8489 49.9542 14.8539C49.9661 14.8588 49.9769 14.8661 49.986 14.8753C49.995 14.8845 50.0022 14.8954 50.007 14.9074C50.0118 14.9194 50.0142 14.9322 50.014 14.9451V15.6042C50.0142 15.6171 50.0118 15.6299 50.007 15.6419C50.0022 15.6539 49.995 15.6648 49.986 15.674C49.9769 15.6832 49.9661 15.6905 49.9542 15.6955C49.9422 15.7005 49.9294 15.703 49.9165 15.703H48.122V16.274H49.6299C49.6835 16.274 49.7274 16.3183 49.7274 16.3728V17.0324C49.7275 17.0453 49.7251 17.0581 49.7203 17.07C49.7154 17.0819 49.7083 17.0927 49.6992 17.1019C49.6901 17.111 49.6793 17.1183 49.6675 17.1232C49.6556 17.1282 49.6428 17.1308 49.6299 17.1308H48.122V17.7295H49.9165C49.9701 17.7295 50.0135 17.7733 50.0135 17.8283V18.4874C50.0136 18.5003 50.0112 18.513 50.0064 18.525C50.0015 18.5369 49.9944 18.5477 49.9853 18.5569C49.9762 18.566 49.9654 18.5733 49.9536 18.5782C49.9417 18.5832 49.9289 18.5857 49.916 18.5857H47.2676C47.2547 18.5857 47.2419 18.5832 47.2301 18.5782C47.2182 18.5733 47.2074 18.566 47.1983 18.5569C47.1892 18.5477 47.1821 18.5369 47.1772 18.525C47.1724 18.513 47.17 18.5003 47.1701 18.4874V14.9451C47.1699 14.9322 47.1723 14.9194 47.1771 14.9074C47.1819 14.8954 47.1891 14.8845 47.1981 14.8753C47.2072 14.8661 47.218 14.8588 47.2299 14.8539C47.2419 14.8489 47.2547 14.8463 47.2676 14.8463H49.9165ZM53.3535 15.1374C53.0835 14.9067 52.7589 14.8463 52.4563 14.8463H50.8825C50.8289 14.8463 50.785 14.8901 50.785 14.9451V18.4874C50.785 18.5419 50.8289 18.5857 50.8825 18.5857H51.6389C51.693 18.5857 51.7364 18.5419 51.7364 18.4874V17.5372H52.4821C52.7687 17.5372 53.0553 17.4822 53.3146 17.2739C53.6177 17.0378 53.8122 16.6532 53.8122 16.1918C53.8122 15.7473 53.6338 15.374 53.3531 15.1374H53.3535ZM56.9202 16.587L55.5039 18.0532V18.4869C55.5041 18.4999 55.5018 18.5127 55.497 18.5248C55.4922 18.5368 55.4851 18.5478 55.476 18.557C55.467 18.5663 55.4561 18.5736 55.4442 18.5786C55.4322 18.5836 55.4194 18.5862 55.4064 18.5862H54.6495C54.6366 18.5862 54.6238 18.5835 54.6119 18.5785C54.6 18.5734 54.5892 18.5661 54.5802 18.5568C54.5712 18.5476 54.5641 18.5367 54.5593 18.5247C54.5546 18.5126 54.5523 18.4998 54.5525 18.4869V14.9456C54.5523 14.9327 54.5546 14.9198 54.5594 14.9078C54.5641 14.8957 54.5713 14.8848 54.5804 14.8755C54.5894 14.8663 54.6003 14.8589 54.6122 14.8539C54.6242 14.8489 54.637 14.8463 54.65 14.8463H55.4064C55.4194 14.8463 55.4322 14.8489 55.4442 14.8539C55.4561 14.8589 55.467 14.8663 55.476 14.8755C55.4851 14.8848 55.4922 14.8957 55.497 14.9078C55.5018 14.9198 55.5041 14.9327 55.5039 14.9456V16.8674L56.9202 15.4071V14.9456C56.92 14.9327 56.9223 14.9199 56.927 14.9079C56.9318 14.8959 56.9389 14.8849 56.9479 14.8757C56.9569 14.8664 56.9677 14.8591 56.9796 14.854C56.9915 14.849 57.0043 14.8464 57.0172 14.8463H57.7736C57.8282 14.8463 57.8716 14.8901 57.8716 14.9456V18.4869C57.8718 18.4999 57.8694 18.5128 57.8646 18.5248C57.8597 18.5368 57.8525 18.5478 57.8434 18.557C57.8343 18.5663 57.8234 18.5736 57.8115 18.5786C57.7995 18.5836 57.7866 18.5862 57.7736 18.5862H57.0167C57.0038 18.5862 56.991 18.5835 56.9791 18.5785C56.9672 18.5734 56.9564 18.5661 56.9474 18.5568C56.9384 18.5476 56.9313 18.5367 56.9265 18.5247C56.9218 18.5126 56.9195 18.4998 56.9197 18.4869L56.9202 16.587ZM61.3462 15.1374C61.0761 14.9067 60.7516 14.8463 60.4489 14.8463H58.8761C58.8632 14.8463 58.8504 14.8489 58.8385 14.8539C58.8265 14.8588 58.8157 14.8661 58.8066 14.8753C58.7976 14.8845 58.7904 14.8954 58.7856 14.9074C58.7808 14.9194 58.7784 14.9322 58.7786 14.9451V18.4874C58.7785 18.5003 58.7809 18.513 58.7858 18.525C58.7906 18.5369 58.7978 18.5477 58.8068 18.5569C58.8159 18.566 58.8267 18.5733 58.8386 18.5782C58.8505 18.5832 58.8632 18.5857 58.8761 18.5857H59.632C59.6449 18.5857 59.6577 18.5832 59.6696 18.5782C59.6814 18.5733 59.6922 18.566 59.7013 18.5569C59.7104 18.5477 59.7175 18.5369 59.7224 18.525C59.7272 18.513 59.7296 18.5003 59.7295 18.4874V17.5372H60.4757C60.7623 17.5372 61.0484 17.4822 61.3081 17.2739C61.6108 17.0378 61.8058 16.6532 61.8058 16.1918C61.8058 15.7473 61.6269 15.374 61.3462 15.1374ZM62.8965 17.7567C63.0583 17.7567 63.1831 17.746 63.2913 17.7017C63.3776 17.6691 63.4482 17.6195 63.5179 17.5484L62.221 14.9836C62.1942 14.9286 62.1996 14.8463 62.2966 14.8463H63.1456C63.2318 14.8463 63.2806 14.896 63.3079 14.9563L64.0048 16.5598L64.6048 14.9563C64.6321 14.8906 64.6804 14.8463 64.7671 14.8463H65.5723C65.6693 14.8463 65.6756 14.9291 65.6483 14.9836L64.599 17.4549C64.464 17.7733 64.3021 18.004 64.113 18.1798C63.7884 18.4816 63.3937 18.5862 63.0047 18.5862H62.6694C62.6565 18.5862 62.6437 18.5835 62.6318 18.5785C62.6199 18.5734 62.6091 18.5661 62.6001 18.5568C62.5911 18.5476 62.584 18.5367 62.5792 18.5247C62.5745 18.5126 62.5722 18.4998 62.5724 18.4869V17.856C62.5722 17.8431 62.5745 17.8303 62.5792 17.8183C62.584 17.8063 62.5911 17.7954 62.6001 17.7861C62.6091 17.7769 62.6199 17.7695 62.6318 17.7645C62.6437 17.7594 62.6565 17.7568 62.6694 17.7567H62.8965ZM67.8576 17.1312C68.0472 18.0537 68.8743 18.6354 69.8145 18.6354C70.8794 18.6354 71.804 17.894 71.804 16.7189C71.804 15.5492 70.8799 14.7913 69.8145 14.7913C68.885 14.7913 68.0686 15.3628 67.8635 16.2745H67.1816V14.9456C67.1819 14.9327 67.1796 14.92 67.1749 14.908C67.1701 14.896 67.1631 14.8851 67.1541 14.8759C67.1451 14.8666 67.1344 14.8593 67.1226 14.8542C67.1107 14.8491 67.098 14.8464 67.0851 14.8463H66.3282C66.2741 14.8463 66.2307 14.8906 66.2307 14.9456V18.4874C66.2305 18.5003 66.2329 18.5131 66.2377 18.5251C66.2425 18.5371 66.2497 18.548 66.2588 18.5572C66.2678 18.5664 66.2786 18.5737 66.2906 18.5787C66.3025 18.5836 66.3153 18.5862 66.3282 18.5862H67.0846C67.0975 18.5862 67.1102 18.5835 67.1221 18.5785C67.134 18.5735 67.1447 18.5662 67.1538 18.557C67.1628 18.5478 67.1699 18.5369 67.1747 18.525C67.1794 18.513 67.1818 18.5003 67.1816 18.4874V17.1312H67.8576ZM72.5643 18.4874V14.9451C72.5643 14.8906 72.6077 14.8463 72.6618 14.8463H73.4187C73.4728 14.8463 73.5161 14.8906 73.5161 14.9451V17.7295H74.6727L74.6732 14.9451C74.673 14.9323 74.6753 14.9196 74.6801 14.9076C74.6848 14.8957 74.6919 14.8849 74.7009 14.8757C74.7098 14.8665 74.7205 14.8592 74.7323 14.8541C74.7442 14.8491 74.7569 14.8464 74.7697 14.8463H75.5266C75.5395 14.8463 75.5523 14.8489 75.5642 14.8539C75.5762 14.8588 75.587 14.8661 75.5961 14.8753C75.6051 14.8845 75.6123 14.8954 75.6171 14.9074C75.6219 14.9194 75.6243 14.9322 75.6241 14.9451L75.6236 17.7295H76.7811V14.9451C76.7809 14.9322 76.7833 14.9194 76.7881 14.9074C76.7929 14.8954 76.8001 14.8845 76.8092 14.8753C76.8182 14.8661 76.829 14.8588 76.841 14.8539C76.8529 14.8489 76.8657 14.8463 76.8786 14.8463H77.6345C77.6475 14.8463 77.6603 14.8489 77.6722 14.8539C77.6841 14.8588 77.6949 14.8661 77.704 14.8753C77.7131 14.8845 77.7202 14.8954 77.725 14.9074C77.7298 14.9194 77.7322 14.9322 77.732 14.9451V17.7295H78.565C78.5778 17.7296 78.5905 17.7323 78.6023 17.7373C78.6141 17.7424 78.6248 17.7497 78.6338 17.7589C78.6427 17.768 78.6498 17.7789 78.6546 17.7908C78.6593 17.8027 78.6617 17.8155 78.6615 17.8283V19.3329C78.6617 19.3458 78.6593 19.3585 78.6546 19.3704C78.6498 19.3823 78.6427 19.3932 78.6338 19.4024C78.6248 19.4116 78.6141 19.4189 78.6023 19.4239C78.5905 19.429 78.5778 19.4316 78.565 19.4317H77.808C77.7951 19.4317 77.7823 19.4292 77.7704 19.4242C77.7585 19.4192 77.7477 19.4119 77.7386 19.4027C77.7295 19.3935 77.7224 19.3826 77.7176 19.3706C77.7128 19.3587 77.7104 19.3458 77.7106 19.3329V18.5862H72.6618C72.6488 18.5862 72.636 18.5836 72.6241 18.5787C72.6122 18.5737 72.6014 18.5664 72.5923 18.5572C72.5832 18.548 72.5761 18.5371 72.5713 18.5251C72.5665 18.5131 72.5641 18.5003 72.5643 18.4874ZM79.8122 18.5857C79.8984 18.5857 79.9521 18.5531 79.974 18.4762L80.1416 17.9106H81.2714L81.4332 18.4762C81.4551 18.5531 81.5092 18.5857 81.5955 18.5857H82.3636C82.4275 18.5857 82.4494 18.5531 82.4494 18.5093C82.4492 18.494 82.4469 18.4788 82.4426 18.464L82.4406 18.4553L82.4392 18.4489L81.2772 14.9291C81.2553 14.8575 81.2066 14.8298 81.1257 14.8298H80.3254C80.2445 14.8298 80.1957 14.8575 80.1743 14.9291L78.9895 18.4485L78.9865 18.4621C78.9823 18.4775 78.98 18.4933 78.9797 18.5093C78.9797 18.5531 79.0012 18.5857 79.066 18.5857H79.8122ZM82.892 16.0983C82.892 15.703 83.0435 15.335 83.3189 15.115C83.5626 14.9237 83.9028 14.8463 84.2649 14.8463H85.903C85.9159 14.8464 85.9286 14.849 85.9405 14.854C85.9524 14.859 85.9631 14.8663 85.9721 14.8755C85.9812 14.8847 85.9883 14.8956 85.993 14.9075C85.9978 14.9195 86.0002 14.9323 86 14.9451V18.4874C86.0001 18.5002 85.9977 18.5129 85.9929 18.5248C85.9881 18.5367 85.981 18.5476 85.972 18.5567C85.963 18.5658 85.9522 18.5731 85.9404 18.5781C85.9286 18.5831 85.9159 18.5857 85.903 18.5857H85.1461C85.1332 18.5857 85.1205 18.5832 85.1086 18.5782C85.0967 18.5733 85.0859 18.566 85.0768 18.5569C85.0678 18.5477 85.0606 18.5369 85.0558 18.525C85.0509 18.513 85.0485 18.5003 85.0486 18.4874V17.3668H84.4701L83.8921 18.4874C83.8487 18.5697 83.7946 18.5857 83.7083 18.5857H82.8754C82.8218 18.5857 82.7891 18.559 82.7891 18.5093C82.7891 18.4816 82.7998 18.4485 82.8218 18.4105L83.5187 17.1804C83.439 17.1361 83.3648 17.0827 83.2975 17.0212C83.1673 16.9057 83.0637 16.7635 82.9937 16.6043C82.9237 16.4451 82.889 16.2726 82.892 16.0988V16.0983ZM39.6639 22.4352C39.6639 23.5937 40.5885 24.3516 41.6583 24.3516C42.7227 24.3516 43.6468 23.6102 43.6478 22.4352C43.6478 21.2654 42.7227 20.5075 41.6583 20.5075C40.5885 20.5075 39.6639 21.2654 39.6639 22.4352ZM48.2731 24.1978C48.2733 24.2107 48.271 24.2236 48.2662 24.2356C48.2614 24.2477 48.2543 24.2586 48.2452 24.2679C48.2361 24.2771 48.2253 24.2845 48.2133 24.2895C48.2014 24.2945 48.1885 24.2971 48.1756 24.2971H47.4518C47.4388 24.2971 47.426 24.2945 47.4141 24.2895C47.4021 24.2845 47.3913 24.2771 47.3822 24.2679C47.3731 24.2586 47.366 24.2477 47.3612 24.2356C47.3564 24.2236 47.3541 24.2107 47.3543 24.1978V22.2375L46.7865 23.3084C46.7485 23.3742 46.7163 23.4073 46.635 23.4073H46.0784C45.9979 23.4073 45.9648 23.3742 45.9273 23.3084L45.3278 22.2375L45.3273 24.1978C45.3276 24.2107 45.3252 24.2236 45.3205 24.2356C45.3157 24.2477 45.3085 24.2586 45.2995 24.2679C45.2904 24.2771 45.2795 24.2845 45.2676 24.2895C45.2556 24.2945 45.2428 24.2971 45.2298 24.2971H44.5056C44.4926 24.2971 44.4798 24.2945 44.4678 24.2895C44.4559 24.2845 44.445 24.2771 44.4359 24.2679C44.4269 24.2586 44.4197 24.2477 44.415 24.2356C44.4102 24.2236 44.4078 24.2107 44.4081 24.1978V20.656C44.4081 20.6015 44.452 20.5572 44.5056 20.5572H45.2678C45.3439 20.5572 45.3921 20.5679 45.4414 20.656L46.3381 22.2925L47.2349 20.656C47.2842 20.5684 47.3324 20.5572 47.4084 20.5572H48.1761C48.189 20.5572 48.2018 20.5597 48.2137 20.5647C48.2256 20.5697 48.2364 20.577 48.2455 20.5862C48.2546 20.5954 48.2617 20.6063 48.2665 20.6183C48.2714 20.6303 48.2737 20.6431 48.2735 20.656V24.1978H48.2731ZM51.4508 24.1978C51.4506 24.2106 51.453 24.2234 51.4577 24.2354C51.4625 24.2473 51.4696 24.2582 51.4787 24.2674C51.4877 24.2766 51.4984 24.2839 51.5103 24.2889C51.5222 24.2939 51.5349 24.2965 51.5478 24.2966H52.3042C52.3171 24.2966 52.3299 24.294 52.3419 24.289C52.3538 24.2841 52.3646 24.2768 52.3737 24.2676C52.3827 24.2584 52.3899 24.2475 52.3947 24.2355C52.3995 24.2235 52.4019 24.2107 52.4017 24.1978V20.656C52.4019 20.6431 52.3995 20.6303 52.3947 20.6183C52.3899 20.6063 52.3827 20.5954 52.3737 20.5862C52.3646 20.577 52.3538 20.5697 52.3419 20.5647C52.3299 20.5597 52.3171 20.5572 52.3042 20.5572H49.2776C49.2647 20.5573 49.252 20.56 49.2402 20.565C49.2284 20.57 49.2177 20.5774 49.2087 20.5865C49.1998 20.5957 49.1927 20.6066 49.188 20.6185C49.1832 20.6304 49.1809 20.6432 49.1811 20.656L49.1806 24.1978C49.1804 24.2107 49.1827 24.2235 49.1876 24.2355C49.1924 24.2475 49.1995 24.2584 49.2086 24.2676C49.2177 24.2768 49.2285 24.2841 49.2404 24.289C49.2523 24.294 49.2651 24.2966 49.278 24.2966H50.0345C50.0473 24.2965 50.0601 24.2939 50.072 24.2889C50.0838 24.2839 50.0946 24.2766 50.1036 24.2674C50.1126 24.2582 50.1197 24.2473 50.1245 24.2354C50.1293 24.2234 50.1316 24.2106 50.1314 24.1978V21.4134H51.4508V24.1978ZM53.974 24.1871C53.9525 24.2635 53.8984 24.2966 53.8122 24.2966H53.0665C53.0012 24.2966 52.9797 24.2635 52.9797 24.2197C52.9797 24.2017 52.9831 24.1876 52.9875 24.171L52.99 24.1593L54.1743 20.6399C54.1957 20.5679 54.2445 20.5406 54.3254 20.5406H55.1257C55.2066 20.5406 55.2553 20.5679 55.2777 20.6394L56.4392 24.1593L56.4416 24.1705C56.4464 24.1865 56.4491 24.203 56.4494 24.2197C56.4494 24.2635 56.428 24.2966 56.3636 24.2966H55.5955C55.5092 24.2966 55.4551 24.2635 55.4337 24.1871L55.2714 23.6209H54.1416L53.974 24.1871ZM60.3353 20.656C60.3355 20.6431 60.3332 20.6303 60.3284 20.6184C60.3236 20.6064 60.3165 20.5956 60.3075 20.5864C60.2984 20.5772 60.2877 20.5699 60.2758 20.5649C60.264 20.5598 60.2512 20.5572 60.2383 20.5572H59.4814C59.4685 20.5572 59.4558 20.5598 59.4439 20.5649C59.4321 20.5699 59.4213 20.5772 59.4123 20.5864C59.4033 20.5956 59.3962 20.6064 59.3914 20.6184C59.3866 20.6303 59.3842 20.6431 59.3844 20.656V21.9849H57.9783V20.656C57.9785 20.6431 57.9762 20.6303 57.9714 20.6184C57.9666 20.6064 57.9595 20.5956 57.9505 20.5864C57.9415 20.5772 57.9307 20.5699 57.9188 20.5649C57.907 20.5598 57.8942 20.5572 57.8813 20.5572H57.1249C57.112 20.5572 57.0993 20.5598 57.0874 20.5649C57.0756 20.5699 57.0648 20.5772 57.0558 20.5864C57.0468 20.5956 57.0397 20.6064 57.0349 20.6184C57.0301 20.6303 57.0277 20.6431 57.0279 20.656V24.1978C57.0279 24.2528 57.0703 24.2966 57.1244 24.2966H57.8813C57.8942 24.2965 57.907 24.2939 57.9188 24.2889C57.9307 24.2839 57.9415 24.2766 57.9505 24.2674C57.9595 24.2582 57.9666 24.2473 57.9714 24.2354C57.9762 24.2234 57.9785 24.2106 57.9783 24.1978V22.8416H59.3839V24.1978C59.3838 24.2107 59.3861 24.2235 59.3909 24.2355C59.3958 24.2475 59.4029 24.2584 59.412 24.2676C59.4211 24.2768 59.4319 24.2841 59.4438 24.289C59.4557 24.294 59.4685 24.2966 59.4814 24.2966H60.2383C60.2512 24.2965 60.264 24.2939 60.2758 24.2889C60.2877 24.2839 60.2984 24.2766 60.3075 24.2674C60.3165 24.2582 60.3236 24.2473 60.3284 24.2354C60.3332 24.2234 60.3355 24.2106 60.3353 24.1978V20.656ZM63.6101 22.2979L62.1942 23.7641V24.1973C62.1945 24.2102 62.1921 24.2231 62.1874 24.2351C62.1826 24.2472 62.1754 24.2581 62.1664 24.2674C62.1573 24.2766 62.1464 24.284 62.1345 24.289C62.1225 24.294 62.1097 24.2966 62.0967 24.2966H61.3398C61.327 24.2965 61.3143 24.2938 61.3025 24.2888C61.2907 24.2837 61.28 24.2764 61.271 24.2672C61.262 24.258 61.255 24.2472 61.2502 24.2353C61.2455 24.2233 61.2431 24.2106 61.2433 24.1978V20.656C61.2431 20.6431 61.2455 20.6303 61.2503 20.6184C61.2551 20.6064 61.2622 20.5956 61.2712 20.5864C61.2802 20.5772 61.291 20.5699 61.3028 20.5649C61.3147 20.5598 61.3274 20.5572 61.3403 20.5572H62.0967C62.1097 20.5572 62.1224 20.5597 62.1344 20.5647C62.1463 20.5697 62.1571 20.577 62.1662 20.5862C62.1753 20.5954 62.1824 20.6063 62.1872 20.6183C62.192 20.6303 62.1944 20.6431 62.1942 20.656V22.5778L63.6101 21.1175V20.656C63.6099 20.6431 63.6122 20.6303 63.6171 20.6183C63.6219 20.6063 63.629 20.5954 63.6381 20.5862C63.6472 20.577 63.658 20.5697 63.6699 20.5647C63.6818 20.5597 63.6946 20.5572 63.7075 20.5572H64.464C64.5181 20.5572 64.5619 20.601 64.5619 20.656V24.1978C64.5619 24.2528 64.5181 24.2966 64.464 24.2966H63.707C63.6942 24.2965 63.6814 24.2939 63.6696 24.2889C63.6577 24.2839 63.6469 24.2766 63.6379 24.2674C63.6289 24.2582 63.6218 24.2473 63.617 24.2354C63.6122 24.2234 63.6099 24.2106 63.6101 24.1978V22.2969V22.2979ZM65.7609 20.8259C65.4845 21.0459 65.3334 21.4139 65.3334 21.8092C65.3334 22.1387 65.447 22.4683 65.739 22.7316C65.8091 22.7978 65.8847 22.847 65.9607 22.8913L65.2633 24.1214C65.2442 24.151 65.2328 24.185 65.2301 24.2202C65.2301 24.2693 65.2633 24.2966 65.3169 24.2966H66.1503C66.2356 24.2966 66.2902 24.28 66.3336 24.1978L66.9116 23.0777H67.4901V24.1978C67.4899 24.2106 67.4923 24.2234 67.4971 24.2354C67.5019 24.2473 67.509 24.2582 67.518 24.2674C67.527 24.2766 67.5378 24.2839 67.5496 24.2889C67.5615 24.2939 67.5742 24.2965 67.5871 24.2966H68.344C68.3569 24.2966 68.3697 24.294 68.3817 24.289C68.3936 24.2841 68.4044 24.2768 68.4135 24.2676C68.4225 24.2584 68.4297 24.2475 68.4345 24.2355C68.4393 24.2235 68.4417 24.2107 68.4415 24.1978V20.656C68.4417 20.6431 68.4393 20.6303 68.4345 20.6183C68.4297 20.6063 68.4225 20.5954 68.4135 20.5862C68.4044 20.577 68.3936 20.5697 68.3817 20.5647C68.3697 20.5597 68.3569 20.5572 68.344 20.5572H66.7064C66.3443 20.5572 66.0036 20.6341 65.7609 20.8259ZM59.6827 9.13592H60.4347C60.4893 9.13592 60.5342 9.18119 60.5342 9.23669V10.5052C60.534 10.5163 60.5372 10.5271 60.5434 10.5363C60.5496 10.5454 60.5585 10.5524 60.5689 10.5563C60.5793 10.5602 60.5906 10.5608 60.6013 10.558C60.612 10.5552 60.6216 10.5492 60.6287 10.5408L61.7721 9.17195C61.7813 9.16077 61.7928 9.15174 61.8059 9.14552C61.8189 9.13929 61.8332 9.13602 61.8477 9.13592H62.7493C62.8346 9.13592 62.8673 9.21283 62.8054 9.28585L61.4977 10.8036L61.6323 10.8026C61.6659 10.8026 61.6976 10.8202 61.7161 10.8489L62.9131 12.7215C62.956 12.7892 62.9769 12.8773 62.8687 12.8773H61.8896C61.8724 12.8773 61.8556 12.8728 61.8407 12.8643C61.8258 12.8557 61.8134 12.8434 61.8048 12.8286L60.9602 11.5187C60.9566 11.5125 60.9516 11.5073 60.9455 11.5035C60.9395 11.4997 60.9327 11.4973 60.9256 11.4966C60.9185 11.496 60.9113 11.497 60.9047 11.4997C60.8981 11.5023 60.8922 11.5065 60.8875 11.5119L60.5595 11.8901C60.5431 11.9086 60.534 11.9325 60.5342 11.9573V12.7765C60.5343 12.803 60.5239 12.8285 60.5053 12.8474C60.4867 12.8663 60.4613 12.877 60.4347 12.8773H59.6827C59.6696 12.8772 59.6566 12.8745 59.6446 12.8693C59.6325 12.8642 59.6215 12.8567 59.6124 12.8474C59.6032 12.838 59.5959 12.8269 59.591 12.8148C59.5861 12.8026 59.5837 12.7896 59.5838 12.7765V9.23669C59.5838 9.18119 59.6281 9.13592 59.6827 9.13592ZM37.0184 20.5523H36.2659C36.2527 20.5524 36.2398 20.5551 36.2277 20.5603C36.2156 20.5654 36.2047 20.5729 36.1955 20.5822C36.1863 20.5916 36.1791 20.6026 36.1741 20.6148C36.1692 20.627 36.1668 20.64 36.1669 20.6531V24.1929C36.1669 24.2484 36.2108 24.2937 36.2659 24.2937H37.0179C37.031 24.2935 37.044 24.2908 37.0561 24.2857C37.0681 24.2806 37.0791 24.2731 37.0883 24.2638C37.0974 24.2544 37.1047 24.2433 37.1096 24.2312C37.1145 24.219 37.117 24.206 37.1168 24.1929V23.3737C37.1168 23.3488 37.1261 23.325 37.1427 23.3065L37.4702 22.9283C37.4749 22.9229 37.4808 22.9187 37.4875 22.916C37.4942 22.9134 37.5013 22.9124 37.5085 22.913C37.5156 22.9137 37.5225 22.916 37.5285 22.9199C37.5346 22.9237 37.5396 22.9289 37.5433 22.9351L38.3879 24.2445C38.3965 24.2595 38.4088 24.2719 38.4237 24.2805C38.4386 24.2892 38.4555 24.2937 38.4727 24.2937H39.4519C39.5601 24.2937 39.5396 24.2051 39.4958 24.1379L38.2987 22.2653C38.2898 22.2512 38.2775 22.2397 38.2629 22.2316C38.2484 22.2235 38.232 22.2192 38.2154 22.219L38.0804 22.22L39.3885 20.7022C39.4504 20.6292 39.4178 20.5523 39.3325 20.5523H38.4303C38.4159 20.5525 38.4018 20.5558 38.3888 20.562C38.3758 20.5682 38.3644 20.5772 38.3553 20.5883L37.2119 21.9571C37.2048 21.9657 37.1952 21.9719 37.1845 21.9748C37.1737 21.9778 37.1623 21.9773 37.1519 21.9734C37.1414 21.9695 37.1324 21.9625 37.1261 21.9533C37.1199 21.9441 37.1166 21.9332 37.1168 21.9221V20.6531C37.117 20.64 37.1145 20.627 37.1096 20.6148C37.1047 20.6026 37.0974 20.5916 37.0883 20.5822C37.0791 20.5729 37.0681 20.5654 37.0561 20.5603C37.044 20.5551 37.031 20.5524 37.0179 20.5523H37.0184ZM45.917 11.4155C45.8042 11.3763 45.6851 11.3576 45.5656 11.3605H45.2898V12.0907H45.6417C45.7655 12.0907 45.8844 12.0746 45.9711 12.0254C46.0633 11.9699 46.1222 11.877 46.1222 11.7236C46.1222 11.5805 46.0633 11.4759 45.917 11.4155ZM53.6396 9.98243C53.7527 9.98243 53.8668 10.0043 53.9584 10.0652C54.072 10.1363 54.148 10.2677 54.148 10.4823C54.148 10.7014 54.072 10.8338 53.953 10.9049C53.8668 10.9599 53.7532 10.9818 53.6392 10.9818H53.0397V9.98243H53.6396ZM64.9299 10.2896L64.5892 11.4267H65.2594L64.9299 10.2896ZM68.2266 10.0481C68.3128 9.98243 68.4318 9.95517 68.5458 9.95517H69.2642V10.8445H68.556C68.4425 10.8445 68.3289 10.8173 68.2431 10.7618C68.1403 10.6907 68.075 10.57 68.075 10.4001C68.075 10.2351 68.1291 10.1197 68.2266 10.0481ZM52.6556 15.7746C52.5645 15.7142 52.4504 15.6918 52.3373 15.6918H51.7374V16.6912H52.3369C52.4504 16.6912 52.5645 16.6698 52.6507 16.6143C52.7692 16.5437 52.8452 16.4118 52.8452 16.1918C52.8452 15.9776 52.7692 15.8461 52.6556 15.7746ZM60.33 15.6918C60.4435 15.6918 60.5571 15.7142 60.6487 15.7746C60.7628 15.8461 60.8383 15.9776 60.8383 16.1918C60.8383 16.4118 60.7628 16.5437 60.6434 16.6143C60.5571 16.6698 60.4435 16.6912 60.33 16.6912H59.73V15.6918H60.33ZM69.8145 15.6977C69.2418 15.6977 68.8304 16.126 68.8304 16.7189C68.8304 17.3123 69.2418 17.7348 69.8145 17.7348C70.3876 17.7348 70.7931 17.3123 70.7931 16.7189C70.7931 16.126 70.3876 15.6977 69.8145 15.6977ZM80.3736 17.1366L80.7148 15.9995L81.0438 17.1366H80.3736ZM84.3302 15.6651C84.2167 15.6651 84.0977 15.6918 84.011 15.758C83.914 15.8296 83.8594 15.945 83.8594 16.1095C83.8594 16.2799 83.9247 16.4006 84.0276 16.4717C84.1138 16.5271 84.2269 16.5544 84.3405 16.5544H85.0491V15.6646H84.3302V15.6651ZM40.6747 22.4347C40.6747 21.8418 41.0851 21.4129 41.6583 21.4129C42.2314 21.4129 42.6365 21.8413 42.6365 22.4347C42.6365 23.0276 42.231 23.4506 41.6583 23.4506C41.0851 23.4506 40.6747 23.0276 40.6747 22.4347ZM54.7148 21.7094L54.3736 22.8465H55.0443L54.7148 21.7099V21.7094ZM66.453 21.4684C66.5392 21.4022 66.6577 21.375 66.7717 21.375H67.4901V22.2643H66.782C66.6689 22.2643 66.5553 22.237 66.4691 22.182C66.3662 22.1105 66.3014 21.9898 66.3014 21.8199C66.3014 21.6549 66.355 21.5395 66.453 21.4684Z" fill="#424242"/>
</svg>
